<?xml version="1.0" encoding="utf-8" ?><svg xmlns="http://www.w3.org/2000/svg" xmlns:xlink="http://www.w3.org/1999/xlink" width="377" height="323" viewBox="0 0 377 323"><defs><linearGradient id="gradient_0" gradientUnits="userSpaceOnUse" x1="95.001144" y1="164.89824" x2="198.82735" y2="95.748055"><stop offset="0" stop-color="#1B5D93"/><stop offset="1" stop-color="#49A3D7"/></linearGradient></defs><path fill="url(#gradient_0)" d="M193.53 89.556L193.907 88.458L194.437 88.2619C194.66 92.1522 195.101 96.0133 195.008 99.9158C194.743 115.885 188.713 131.221 178.029 143.093C166.733 155.788 150.338 164.744 133.209 165.679C115.243 166.66 98.7068 160.916 85.3286 148.894C83.1636 146.948 79.2778 143.791 79.133 140.672C79.1035 140.037 79.2594 139.587 79.5722 139.045C80.0491 138.82 80.1881 138.703 80.7244 138.875C82.9825 139.598 85.1115 142.239 86.0643 144.318C86.5598 145.399 86.8227 146.524 87.0473 147.686C87.7367 147.762 88.4157 147.844 89.1102 147.848C91.1319 147.86 93.6436 149.308 95.2263 149.121C95.1691 148.329 94.8783 146.637 95.4415 145.989C95.9049 145.456 96.3827 145.203 97.0946 145.151C99.051 145.009 101.396 146.343 102.784 147.625C103.928 148.681 104.827 150.544 106.551 150.508L106.863 150.295C106.182 148.38 102.406 146.458 103.703 144.069C104.198 143.157 105.423 142.446 106.391 142.181C108.182 141.69 110.288 142.365 111.811 143.313C112.965 144.031 114.697 145.587 114.975 146.971C115.108 147.631 114.81 148.471 115.327 148.913C117.566 148.493 119.784 148.006 122.061 147.848C119.343 147.235 116.976 146.297 115.432 143.798C114.803 142.78 114.363 141.453 114.639 140.256C114.837 139.394 115.401 138.814 116.15 138.385C117.846 137.415 120.474 137.419 122.293 137.999C123.891 138.509 125.185 139.56 125.956 141.058C126.662 142.43 126.553 143.804 126.797 145.279C129.739 144.842 132.449 142.535 134.745 141.922C132.351 141.883 129.67 141.552 127.93 139.728C127.044 138.801 126.525 137.57 126.603 136.277C126.676 135.059 127.295 133.949 128.225 133.175C129.732 131.922 131.784 131.519 133.7 131.717C135.519 131.904 137.317 132.893 138.433 134.345C139.044 135.141 139.597 136.355 139.499 137.374C139.437 138.028 139.144 138.73 139.014 139.39L139.253 139.522C141.592 138.055 143.767 136.518 146.276 135.326C144.131 134.957 141.364 134.58 140.058 132.608C139.249 131.385 139.275 129.81 139.605 128.432C139.703 128.037 139.816 127.645 139.943 127.258C141.415 125.693 142.725 124.39 144.983 124.302C148.774 124.155 152.561 125.645 156.27 126.28C166.022 127.868 175.929 124.535 182.737 117.374C189.443 110.257 193.653 99.3425 193.53 89.556Z"/><path fill="#3D8FC4" d="M107.797 96.3026C108.686 96.255 109.57 96.3002 110.425 96.5717C112.222 97.1571 113.703 98.4487 114.527 100.149C115.27 101.695 115.424 103.528 114.827 105.147C114.109 107.092 112.81 107.929 110.993 108.747C110.404 108.757 109.814 108.771 109.225 108.734C107.751 108.643 106.191 107.749 105.231 106.65C103.55 104.727 103.399 102.565 103.537 100.131C104.605 98.1593 105.678 97.0709 107.797 96.3026Z"/><path fill="#3D8FC4" d="M119.336 107.275C120.554 107.226 121.643 107.373 122.767 107.868C124.381 108.579 125.715 109.885 126.348 111.545C126.903 113.001 126.953 114.646 126.298 116.08C125.462 117.909 123.962 118.573 122.175 119.248C120.827 119.288 119.631 119.257 118.406 118.629C116.829 117.822 115.532 116.405 114.991 114.706C114.519 113.221 114.547 111.593 115.284 110.196C116.176 108.502 117.59 107.832 119.336 107.275Z"/><path fill="#2D78AD" d="M106.543 112.778C107.882 112.706 109.012 112.89 110.209 113.524C112.01 114.479 113.483 116.198 114.056 118.163C114.463 119.556 114.408 121.081 113.65 122.35C112.8 123.772 111.595 124.319 110.07 124.748C108.958 124.791 107.894 124.75 106.851 124.331C105.057 123.612 103.62 122.215 102.851 120.443C102.225 118.968 102.063 117.182 102.736 115.693C103.547 113.903 104.833 113.435 106.543 112.778Z"/><path fill="#2D78AD" d="M94.7788 101.568C95.7517 101.426 96.7168 101.36 97.6648 101.662C99.6344 102.29 101.299 103.833 102.201 105.677C102.933 107.174 103.221 108.977 102.661 110.577C102.082 112.229 101.001 112.953 99.4874 113.676C98.516 113.793 97.3016 113.883 96.3551 113.598C94.5556 113.057 93.0077 111.576 92.1689 109.926C91.373 108.361 91.0476 106.507 91.6081 104.811C92.1644 103.128 93.2594 102.346 94.7788 101.568Z"/><path fill="#3D8FC4" d="M131.735 117.023C133.017 116.813 134.554 117.041 135.735 117.581C137.07 118.18 138.111 119.287 138.627 120.655C139.169 122.094 139.098 123.691 138.43 125.075C137.563 126.855 136.131 127.629 134.319 128.235C132.777 128.456 131.426 128.394 130.021 127.654C128.628 126.926 127.585 125.67 127.124 124.167C126.684 122.725 126.794 121.111 127.55 119.792C128.492 118.149 129.995 117.524 131.735 117.023Z"/><path fill="#3D8FC4" d="M98.3415 84.5495C99.2018 84.5598 100.053 84.7379 100.819 85.1383C102.483 86.0086 103.646 87.5383 104.177 89.3275C104.668 90.9825 104.541 92.8233 103.699 94.3448C102.78 96.007 101.48 96.6952 99.7053 97.1954C98.7175 97.1481 97.8475 97.0737 96.954 96.5926C95.3518 95.7301 94.2053 94.33 93.7069 92.5748C93.2153 90.843 93.4096 88.9089 94.3171 87.3463C95.2714 85.7031 96.5588 85.0197 98.3415 84.5495Z"/><path fill="#2D78AD" d="M118.703 123.035C120.043 122.953 121.382 123.222 122.587 123.816C124.269 124.636 125.775 126.049 126.374 127.858C126.765 129.037 126.711 130.339 126.093 131.436C125.242 132.946 123.862 133.546 122.277 134.017C120.779 134.319 119.28 134.14 117.921 133.434C116.262 132.572 114.955 131.073 114.436 129.266C114.059 127.958 114.131 126.568 114.822 125.372C115.699 123.854 117.122 123.444 118.703 123.035Z"/><path fill="#2D78AD" d="M86.3825 89.7535C87.0144 89.7343 87.7063 89.7037 88.3161 89.8966C89.8749 90.3897 91.1149 91.6227 91.8118 93.0744C92.6736 94.8695 92.8349 97.0834 92.1317 98.9569C91.4418 100.795 90.2817 101.639 88.5425 102.426C88.1155 102.435 87.7007 102.393 87.2786 102.331C85.8228 102.123 84.5193 101.318 83.6808 100.11C82.1073 97.8886 82.2082 95.2088 82.6337 92.6532C83.6657 91.0518 84.605 90.3942 86.3825 89.7535Z"/><path fill="#2D78AD" d="M94.9379 117.554C95.9093 117.695 96.8303 117.891 97.7145 118.33C99.7285 119.33 101.38 121.212 102.091 123.345C102.5 124.571 102.591 125.991 101.937 127.154C101.187 128.487 99.9843 129.094 98.5748 129.487C97.3628 129.506 96.0756 129.224 95.0314 128.595C93.1001 127.43 91.5793 125.461 91.0564 123.256C90.7543 121.982 90.837 120.614 91.5733 119.494C92.4068 118.225 93.5523 117.868 94.9379 117.554Z"/><path fill="#2D78AD" d="M105.608 128.523C106.947 128.419 108.149 128.355 109.417 128.865C111.441 129.678 113.286 131.379 114.098 133.421C114.493 134.416 114.601 135.458 114.115 136.446C113.604 137.485 112.568 138.347 111.488 138.724C110.024 139.146 108.511 139.176 107.094 138.578C105.192 137.775 103.562 136.184 102.787 134.26C102.319 133.099 102.198 131.831 102.76 130.672C103.385 129.384 104.356 128.998 105.608 128.523Z"/><path fill="#2D78AD" d="M84.6973 106.289C85.8839 106.387 86.8831 106.64 87.8797 107.315C90.2365 108.912 91.0824 111.462 91.5751 114.128L90.8093 116.566C89.904 117.441 89.0732 118.094 87.9632 118.691C86.9602 118.715 85.919 118.514 85.0401 118.023C83.1627 116.974 81.9065 115.046 81.3643 112.999C80.9459 111.419 80.8825 109.533 81.7816 108.096C82.5341 106.893 83.4056 106.62 84.6973 106.289Z"/><path fill="#3D8FC4" d="M89.5416 73.2689C90.1773 73.2477 90.8246 73.218 91.4417 73.3993C92.6652 73.7589 93.7531 74.6699 94.3739 75.7754C95.2455 77.3276 95.4064 79.3661 94.9098 81.0639C94.2447 83.3377 93.0108 84.4006 90.9848 85.498C90.1831 85.5201 89.3828 85.5558 88.6253 85.2422C87.3444 84.7118 86.3407 83.6198 85.8043 82.3569C85.0875 80.6691 85.1115 78.6717 85.7917 76.9776C86.5346 75.1276 87.7547 74.0598 89.5416 73.2689Z"/><path fill="#2D78AD" d="M78.742 78.5223C79.3063 78.4727 79.8954 78.4377 80.4581 78.5171C81.581 78.6757 82.6549 79.5512 83.2856 80.4702C84.3057 81.9566 84.5697 83.9581 84.2255 85.7035C83.8021 87.851 82.6689 89.2695 80.897 90.482C80.2358 90.6634 79.617 90.8185 78.9244 90.7214C77.7908 90.5626 76.8363 89.9138 76.2078 88.9709C75.1923 87.4473 75.1094 85.1281 75.4588 83.3902C75.9113 81.1394 76.8395 79.7698 78.742 78.5223Z"/><path fill="#2D78AD" d="M75.4554 94.7994C75.9572 94.7247 76.4792 94.6442 76.9872 94.6935C78.2696 94.8179 79.5669 95.7629 80.3467 96.7498C81.592 98.3257 82.1882 100.593 81.9083 102.579C81.6158 104.653 80.616 105.79 78.9803 106.994C78.4626 107.17 78.0353 107.245 77.4854 107.174C76.247 107.015 75.1956 106.194 74.5043 105.189C73.174 103.254 72.6692 100.521 73.0964 98.2277C73.3953 96.6224 74.1152 95.6943 75.4554 94.7994Z"/><path fill="#196097" d="M94.5384 132.774C95.1976 132.672 95.8379 132.639 96.4979 132.761C98.7426 133.176 101.088 134.997 102.269 136.912C102.931 137.984 103.329 139.291 102.968 140.54C102.602 141.808 101.771 142.342 100.701 142.959C100.012 142.992 99.288 143.042 98.6107 142.891C96.3859 142.395 94.1346 140.589 92.9716 138.658C92.309 137.558 91.93 136.285 92.2903 135.007C92.637 133.777 93.4994 133.346 94.5384 132.774Z"/><path fill="#196097" d="M84.7343 122.297C85.3795 122.306 86.1246 122.48 86.7195 122.731C88.696 123.565 90.4077 125.498 91.2023 127.468C91.7352 128.789 91.9102 130.27 91.2926 131.6C90.7606 132.746 89.965 133.104 88.8678 133.551C88.0592 133.457 87.0932 133.139 86.3842 132.741C84.2554 131.547 82.401 129.039 81.8003 126.686C81.5377 125.657 81.5359 124.543 82.1386 123.626C82.7879 122.638 83.6598 122.501 84.7343 122.297Z"/><path fill="#196097" d="M75.0251 110.727C75.3843 110.751 75.7456 110.784 76.0973 110.864C78.0251 111.303 79.5226 112.837 80.4917 114.496C81.4718 116.175 82.1072 118.308 81.57 120.233C81.2359 121.431 80.6489 122.14 79.5709 122.74C79.5269 122.743 79.4829 122.746 79.4388 122.748C79.3654 122.751 79.2919 122.751 79.2185 122.754C78.7133 122.772 78.1972 122.807 77.706 122.66C76.248 122.223 74.9898 120.809 74.241 119.54C73.1398 117.675 72.432 115.18 73.0253 113.036C73.3795 111.757 73.9255 111.345 75.0251 110.727Z"/><path fill="#3D8FC4" d="M84.0485 63.2342C84.3659 63.2515 84.6852 63.2757 84.9968 63.3419C86.0946 63.5754 87.0921 64.2645 87.6524 65.2442C88.3936 66.5404 88.2925 68.2052 87.8499 69.584C87.1612 71.73 85.759 73.2527 83.7988 74.3007C83.2333 74.4211 82.5634 74.4955 82.0032 74.3327C81.1494 74.0846 80.4442 73.4355 80.0828 72.6292C79.3949 71.0947 79.6328 69.0015 80.1939 67.4633C80.9677 65.3419 82.0165 64.1777 84.0485 63.2342Z"/><path fill="#196097" d="M70.4652 83.469C71.6035 83.6078 72.4939 84.053 73.2187 84.9574C74.3949 86.4249 74.7332 88.4338 74.529 90.2672C74.287 92.44 73.3581 94.2243 71.6545 95.5946C71.1403 95.6929 70.524 95.8154 70.0081 95.6916C69.1026 95.4745 68.3905 94.6916 67.9684 93.9027C66.95 91.9997 67.0436 89.0588 67.6394 87.0431C68.1442 85.3351 68.9019 84.3197 70.4652 83.469Z"/><path fill="#2D78AD" d="M75.3905 68.4742C75.5944 68.4884 75.5895 68.4824 75.8267 68.5323C76.7634 68.7289 77.6013 69.1648 78.0924 70.0171C78.8685 71.3643 78.5442 73.1424 78.0977 74.5457C77.3833 76.7916 76.1078 78.8013 73.9871 79.9026C73.4422 79.8382 72.9185 79.7301 72.4104 79.5139C71.7269 79.2229 71.2814 78.6407 71.0126 77.9627C70.3556 76.3052 70.741 74.2898 71.3886 72.6889C72.2243 70.6229 73.3514 69.3588 75.3905 68.4742Z"/><path fill="#196097" d="M68.2229 99.2531C68.2805 99.2686 68.3384 99.2828 68.3956 99.2996C68.4909 99.3275 68.5851 99.3587 68.6802 99.3871C69.9872 99.7767 70.8217 100.471 71.541 101.613C72.8405 103.677 73.4125 106.456 72.8407 108.846C72.5511 110.056 72.1806 110.983 71.0781 111.669C70.5979 111.694 70.1182 111.712 69.6578 111.549C68.5408 111.154 67.769 109.938 67.2877 108.912C66.2525 106.707 65.6456 103.092 66.5853 100.765C66.9696 99.8129 67.3391 99.641 68.2229 99.2531Z"/><path fill="#196097" d="M67.5138 119.095C67.3703 117.684 67.2142 116.224 67.9857 114.957C68.4057 114.706 68.5051 114.571 69.0086 114.715C70.6746 115.192 72.0603 117.059 72.7848 118.535C73.7102 120.42 74.5526 122.957 73.8532 125.048C73.6622 125.618 73.3811 125.969 72.9215 126.344C72.27 126.507 71.9112 126.586 71.263 126.274C70.5614 125.936 69.9957 125.101 69.5311 124.491C69.3997 125.551 69.778 125.938 70.0799 126.861C70.2587 127.408 70.3281 127.63 70.0734 128.135C69.9672 128.048 69.8097 127.928 69.7128 127.819C67.7564 125.626 67.399 121.898 67.5138 119.095Z"/><path fill="#2D78AD" d="M67.5138 119.095C67.9574 120.672 69.3736 123.097 69.5311 124.491C69.3997 125.551 69.778 125.938 70.0799 126.861C70.2587 127.408 70.3281 127.63 70.0734 128.135C69.9672 128.048 69.8097 127.928 69.7128 127.819C67.7564 125.626 67.399 121.898 67.5138 119.095Z"/><path fill="#196097" d="M85.0542 136.335C85.4547 136.29 85.8567 136.262 86.2595 136.25C88.2417 136.193 90.1558 137.553 91.5379 138.872C92.7246 140.005 93.9725 141.522 93.953 143.257C93.943 144.141 93.5298 144.574 92.9308 145.176C92.4797 145.317 92.0262 145.447 91.5531 145.485C89.7839 145.627 88.1017 144.484 86.8518 143.332C85.5614 142.143 84.1178 140.298 84.1225 138.448C84.1249 137.503 84.4099 136.958 85.0542 136.335Z"/><path fill="#196097" d="M75.5988 131.199C75.0864 129.963 74.4435 128.486 74.9903 127.142C75.2027 126.62 75.6406 126.269 76.1798 126.123C77.2998 125.82 78.7439 126.3 79.6665 126.947C81.451 128.198 82.878 130.706 83.2126 132.843C83.366 133.823 83.2953 134.967 82.6746 135.782C82.3379 136.224 81.8564 136.507 81.2972 136.54C80.2151 136.603 79.1769 135.857 78.4389 135.134C77.8501 134.557 77.3232 133.863 76.833 133.2L75.5988 131.199Z"/><path fill="#3D8FC4" d="M81.0466 55.2019C81.4824 55.1813 81.9239 55.1896 82.352 55.2851C82.8753 55.4017 83.3609 55.7312 83.6395 56.1933C84.051 56.8758 83.9783 57.7012 83.7861 58.4418C83.1363 60.9451 81.3584 62.9527 79.1932 64.2589C78.8112 64.2565 78.4247 64.2623 78.0447 64.2182C77.551 64.1608 77.2259 63.9625 76.9261 63.5688C76.4193 62.9031 76.4341 62.0741 76.5788 61.2881C77.0533 58.7112 78.9316 56.5913 81.0466 55.2019Z"/><path fill="#196097" d="M68.4008 73.8407C68.7676 73.9933 69.0843 74.2123 69.4192 74.4239C69.7122 74.9558 69.8658 75.4448 69.9353 76.0436C70.3425 79.5515 68.6471 83.4656 66.4957 86.1517C66.2042 86.0474 65.8852 85.9353 65.632 85.7534C65.151 85.4078 64.9398 84.7857 64.8739 84.2239C64.5432 81.4045 66.649 76.0299 68.4008 73.8407Z"/><path fill="#196097" d="M64.0559 88.3315L65.0827 88.6202C65.5726 89.031 65.8734 89.4251 66.1332 90.0127C67.4721 93.0407 66.7773 97.5387 65.5964 100.497C65.2313 100.682 64.8855 100.686 64.4859 100.712C64.0424 100.441 63.8791 100.358 63.6527 99.8902C62.5807 97.6774 63.2307 90.6568 64.0559 88.3315Z"/><path fill="#196097" d="M76.1541 133.425C76.8613 134.548 78.2841 136.441 78.3412 137.763C78.3693 138.414 78.1567 138.643 77.7642 139.101L77.2421 139.113C75.2393 138.187 73.2773 134.662 72.244 132.72C71.6679 131.638 70.8559 130.073 71.2321 128.829L71.7033 128.692C73.0344 129.182 73.9121 130.186 74.7754 131.266C75.2027 132.018 75.648 132.723 76.1541 133.425Z"/><path fill="#196097" d="M63.6541 103.727C64.2435 103.997 64.7029 104.271 65.048 104.839C66.735 107.612 67.3691 112.583 66.5102 115.702L65.8865 115.738C65.6966 115.592 65.5408 115.476 65.4159 115.266C64.1332 113.112 63.257 106.206 63.6541 103.727Z"/><path fill="#2D78AD" d="M75.1818 61.1872L75.364 61.3652C75.5052 61.7102 75.5403 61.9283 75.4878 62.2975C74.9671 65.9596 72.376 70.2746 69.3982 72.4441C69.1853 72.1356 69.0653 72.0772 69.0723 71.6848C69.1188 69.0418 73.1598 62.986 75.1818 61.1872Z"/><path fill="#3D8FC4" d="M193.684 84.0816C194.056 85.4855 194.314 86.8141 194.437 88.2619L193.907 88.458L193.53 89.556C193.52 87.7232 193.575 85.9111 193.684 84.0816Z"/><path fill="#D5D2F7" fill-opacity="0.015686275" d="M74.7754 131.266L75.5988 131.199L76.833 133.2L76.1541 133.425C75.648 132.723 75.2027 132.018 74.7754 131.266Z"/></svg>