<?xml version="1.0" encoding="UTF-8"?>
<!DOCTYPE svg PUBLIC "-//W3C//DTD SVG 1.1//EN" "http://www.w3.org/Graphics/SVG/1.1/DTD/svg11.dtd">
<svg xmlns="http://www.w3.org/2000/svg" version="1.1" width="697px" height="560px" style="shape-rendering:geometricPrecision; text-rendering:geometricPrecision; image-rendering:optimizeQuality; fill-rule:evenodd; clip-rule:evenodd" xmlns:xlink="http://www.w3.org/1999/xlink">
<g><path style="opacity:0.988" fill="#0092d5" d="M 57.5,143.5 C 84.5021,143.333 111.502,143.5 138.5,144C 161.142,178.13 184.142,211.964 207.5,245.5C 231.662,211.829 255.662,177.996 279.5,144C 309.506,143.167 339.506,143.333 369.5,144.5C 314.745,221.676 259.745,298.676 204.5,375.5C 180.333,341.167 156.167,306.833 132,272.5C 131.5,322.832 131.333,373.166 131.5,423.5C 106.833,423.5 82.1667,423.5 57.5,423.5C 57.5,330.167 57.5,236.833 57.5,143.5 Z"/></g>
<g><path style="opacity:0.98" fill="#0092d5" d="M 576.5,143.5 C 602.833,143.5 629.167,143.5 655.5,143.5C 624.172,236.651 592.338,329.651 560,422.5C 517.238,423.663 474.404,423.83 431.5,423C 428.445,415.836 425.778,408.503 423.5,401C 451.456,374.582 466.623,342.082 469,303.5C 477.738,328.547 486.571,353.547 495.5,378.5C 523.097,300.377 550.097,222.044 576.5,143.5 Z"/></g>
<g><path style="opacity:0.985" fill="#0092d5" d="M 390.5,169.5 C 422.148,191.094 440.314,221.094 445,259.5C 451.683,317.185 431.516,362.685 384.5,396C 358.825,410.891 331.158,419.558 301.5,422C 281.833,422.667 262.167,422.667 242.5,422C 233.696,421.67 225.029,420.504 216.5,418.5C 231.833,396.833 247.167,375.167 262.5,353.5C 282.667,355.055 302.333,352.555 321.5,346C 358.917,328.334 372.417,299.501 362,259.5C 358.203,249.239 353.37,239.573 347.5,230.5C 361.435,209.896 375.769,189.563 390.5,169.5 Z"/></g>
</svg>
