<?xml version="1.0" encoding="utf-8"?>
<!-- Generator: Adobe Illustrator 19.2.1, SVG Export Plug-In . SVG Version: 6.00 Build 0)  -->
<svg version="1.1" id="layer" xmlns="http://www.w3.org/2000/svg" xmlns:xlink="http://www.w3.org/1999/xlink" x="0px" y="0px"
	 width="1173.6px" height="1173.6px" viewBox="0 0 652 652" style="enable-background:new 0 0 652 652;" xml:space="preserve">
<style type="text/css">
	.st0{fill:#34345D;}
	.st1{fill:#006EAE;}
	.st2{fill:#0081C2;}
	.st3{fill:#64BEE6;}
</style>
<g id="XMLID_1238_">
	<path id="XMLID_1268_" class="st0" d="M473.2,320.6h-14.7c-5.3,0-9.4-1.2-9.4-9c0-6.5,6.5-9.4,13.5-9.8c9.8-0.8,22.8,1.2,28.1,4.1
		v-12.2c-4.5-2-14.3-4.1-24-4.1c-13,0-25.7,4.9-28.5,11.8c-2.9,6.9-2.4,8.6-2.4,11.8s0.4,7.7,2.4,11c2.4,4.5,9.8,9,17.1,9h15.9
		c9,0,9.8,5.7,9.8,9.4c0,7.7-8.2,9.8-15.9,9.8c-8.2,0-19.6-0.8-25.7-4.1v13c6.5,1.2,12.2,2.9,24,2.9c13.9,0,23.2-2.4,28.5-11.8
		c2-3.7,3.3-13.5,1.2-19.2C490.3,325.9,482.5,320.6,473.2,320.6"/>
	<path id="XMLID_1267_" class="st0" d="M256.3,292.5c-2.9,1.6-4.9,5.7-4.9,9.4v40.4c0,0-39.9-51.8-40.4-52.2c-3.7,0-8.2,1.6-9.8,2.9
		c-2.4,2-3.7,4.5-3.7,9.8v61.1h13v-53l41.2,53.4h13.5v-73.4C261.2,290.9,258.8,290.9,256.3,292.5"/>
	<path id="XMLID_1264_" class="st0" d="M414.5,292.5c-2.9,2-4.1,4.5-4.1,6.9v13c-9-4.5-24-3.3-31,2.9c-5.7,4.9-7.7,13.5-7.7,20.4
		c0,6.1,1.2,11,2.9,15.1c4.9,11,15.5,12.2,25.7,12.2c6.1,0,13.9-0.8,23.6-2.9v-69.7C420.6,290.5,416.9,290.9,414.5,292.5
		 M410.4,350.8c-7.3,1.6-10.2,1.6-13,1.6c-12.2,0-12.2-13-12.2-15.9c0-11,3.7-15.1,13-15.1c5.7,0,9,0.8,12.2,2.9
		C410.4,332.1,410.4,343.9,410.4,350.8"/>
	<path id="XMLID_1263_" class="st0" d="M516,300.7c-2.9,0-5.3,0.8-7.7,2.4c-2.4,1.2-4.5,4.9-4.5,9.4v41.2c0,3.3,5.7,10.6,12.2,10.6
		h12.2v-11c0,0-6.9,0.4-9-1.2c-1.2-1.2-1.6-2-1.6-3.7c0-10.6-0.4-27.7-0.4-27.7h11V310H516V300.7z"/>
	<path id="XMLID_1260_" class="st0" d="M325.2,319c-6.5-8.6-17.5-9.4-23.6-9.4s-15.5,2.4-19.2,6.5c-4.1,4.1-6.9,10.2-6.9,20.4
		c0,13.9,3.3,18.3,11,24c4.5,3.3,7.7,3.7,17.1,3.7c6.1,0,10.2-0.8,14.3-2.9c6.9-3.7,12.2-9.8,12.2-25.7
		C330.1,327.6,328.5,323.5,325.2,319 M313.4,347.5c-2,3.7-5.7,5.7-10.6,5.7c-4.5,0-8.2-1.6-9.8-3.7c-2.4-2.9-4.1-4.1-4.1-13.9
		c0-5.7,1.2-8.6,2.9-11c2.9-4.1,6.9-4.9,10.6-4.9c4.1,0,6.9,1.2,9.4,2.9c3.3,2,4.1,8.6,4.1,14.7C315.8,342.7,315,345.1,313.4,347.5"
		/>
	<path id="XMLID_1257_" class="st0" d="M582.8,318.6c-5.7-7.3-19.2-9.4-30.6-8.2c-6.9,0.8-8.2,1.2-11.8,1.6v11
		c9-2,25.3-5.7,31.8,2.9v5.7c-17.5-2.4-32.2-2.4-35.9,11c-0.8,2.4-0.4,6.5,0.4,9.8c2,8.6,15.9,13,28.1,9.8c2-0.4,5.3-1.6,7.7-2.9
		c2.4,1.6,5.7,4.1,5.7,4.1h6.9v-37.5C585.7,323.1,583.6,319.8,582.8,318.6 M571.4,349.6c-2.9,2-14.3,5.3-18.8,2.9
		c-2.4-1.2-4.1-6.1-2.4-9c2.9-4.1,15.5-2.4,21.2-1.6L571.4,349.6L571.4,349.6z"/>
	<path id="XMLID_1255_" class="st0" d="M610.9,316.6V310c-2.9,0-4.5,0-7.7,1.2c-3.3,1.2-5.3,7.3-5.3,11.8c0,10.2,0,41.2,0,41.2h14.3
		V328c2-3.7,9.4-7.3,13.5-6.9v-10.6C619.1,310.5,613.4,312.9,610.9,316.6"/>
	<path id="XMLID_1254_" class="st0" d="M351.7,316.6V310c-2.9,0-4.5,0-7.7,1.2c-3.3,1.2-5.3,7.3-5.3,11.8c0,10.2,0,41.2,0,41.2h14.3
		V328c2-3.7,9.4-7.3,13.5-6.9v-10.6C360.2,310.5,354.1,312.9,351.7,316.6"/>
	<path id="XMLID_1253_" class="st0" d="M164.6,265.6c-19.6,13.5-26.5,42.8-49.3,40.4c4.1,2.9,8.6,6.1,18.3,4.1
		c13.5-2.4,21.2-10.6,24-14.7c5.3-7.3,3.3-4.9,12.2-18.3c7.7-11,12.6-14.7,19.2-15.9C178.5,257.9,169.1,262.4,164.6,265.6"/>
	<path id="XMLID_1252_" class="st0" d="M107.9,318.2c-4.5,2.4-9.4,4.5-12.6,13.5c-4.5,12.6-1.6,23.6,0.4,28.1
		c3.7,8.2,2.4,4.9,9.4,19.6c5.7,12.2,6.5,18.3,4.1,24.9c8.6-7.3,9.4-17.9,9-23.2C116.1,357.3,94.5,337,107.9,318.2"/>
	<path id="XMLID_1251_" class="st0" d="M101,305.6c0.4-4.9,0.8-10.2-5.3-17.9c-9-10.2-19.6-13-24.9-13.5c-9-0.8-5.7-0.4-22-2
		c-13.5-0.8-19.2-3.3-23.2-8.6c2,11,10.6,17.1,15.9,19.2C63.1,292.9,91.6,284.4,101,305.6"/>
	<path id="XMLID_1250_" class="st1" d="M112,303.1c12.2,2.9,19.2-4.5,21.6-6.9c9-9.4,9-19.6,13.5-34.6c1.2-4.5,3.3-8.6,9-13
		C125.1,251.4,134.8,298.6,112,303.1"/>
	<path id="XMLID_1249_" class="st1" d="M112,316.6c-8.6,9.4-5.7,18.8-4.9,22.4c3.7,12.6,12.6,17.5,23.2,28.9
		c3.3,3.7,5.7,7.3,6.9,14.3C150.3,354.1,104.7,339,112,316.6"/>
	<path id="XMLID_1248_" class="st1" d="M83.5,294.6c-12.6-3.3-21.6,2-36.7,5.3c-4.9,1.2-9.4,1.6-15.9-1.2
		c17.5,25.7,53.8-6.5,69.3,11C96.1,297.8,86.7,295.4,83.5,294.6"/>
	<path id="XMLID_1246_" class="st2" d="M124.6,280.3c1.2-9.8-5.3-19.2,1.2-32.2c-7.3,4.1-11.8,10.2-11.8,22.4c0,9.8,0.8,15.9,0,20.4
		c-0.8,6.5-2.4,9-6.5,11c2.4,0,6.9-2,8.2-2.9C120.6,295.8,124.2,286.4,124.6,280.3"/>
	<path id="XMLID_1245_" class="st2" d="M139.3,335.3c-8.6-4.9-14.3-7.3-17.9-10.2c-4.9-4.1-6.5-6.5-6.5-11c-1.2,2-1.6,6.9-1.6,8.6
		c0.4,5.3,6.9,13.5,11.8,17.1c8.2,5.7,19.6,4.9,27.3,17.1C152.8,348,149.9,341.4,139.3,335.3"/>
	<path id="XMLID_1244_" class="st2" d="M94.5,308.4c-4.9-2.4-15.1-0.8-20.8,1.6c-9,4.1-13.9,14.3-28.5,15.1
		c7.3,4.5,14.7,5.3,25.3-0.8c8.6-4.9,13.5-8.6,17.9-10.2c6.1-2.4,9-2,13,0C99.8,312.1,96.1,309.2,94.5,308.4"/>
	<path id="XMLID_1243_" class="st3" d="M102.6,256.2c-4.5,6.1-9,10.2,0.4,30.6c0,0,5.3,10.2,0,17.1c2-0.8,4.1-2.9,5.3-4.5
		c1.2-2,3.7-6.9,2.4-14.3C108.8,273,100.2,270.1,102.6,256.2"/>
	<path id="XMLID_1242_" class="st3" d="M130.8,317.4c0,0-11.4-0.4-14.7-8.6c-0.4,2,0.4,4.9,1.2,6.9c1.2,2,4.1,6.5,11,9
		c11.4,4.1,18.3-1.6,28.9,7.3C154.4,325.5,153.2,319.4,130.8,317.4"/>
	<path id="XMLID_1241_" class="st3" d="M85.1,319.8c-9.4,7.7-7.7,16.7-20.8,21.2c7.3,0.8,13.5,2.9,26.1-15.5c0,0,6.1-9.8,14.7-8.6
		c-1.6-1.6-4.5-2-6.5-2.4C95.7,314.9,90.4,315.3,85.1,319.8"/>
</g>
</svg>