<?xml version="1.0" encoding="utf-8"?>
<!-- Favicon with white background and maximized mark for high visibility -->
<svg xmlns="http://www.w3.org/2000/svg" width="64" height="64" viewBox="0 0 64 64">
  <!-- White background to guarantee contrast -->
  <rect width="64" height="64" rx="12" fill="#ffffff"/>
  <defs>
    <linearGradient id="g" x1="0" y1="64" x2="64" y2="0" gradientUnits="userSpaceOnUse">
      <stop offset="0" stop-color="#1B5D93"/>
      <stop offset="1" stop-color="#49A3D7"/>
    </linearGradient>
  </defs>
  <!-- Simplified, centered logomark scaled to fit -->
  <path fill="url(#g)" d="M50 21c0 11-9 21-21 22C17 44 9 38 9 34c0-1 1-2 2-2 1 0 2 1 3 2 1 1 2 2 4 2 0-2 1-3 3-3 2 0 4 1 5 3 2-1 4-1 6-2-2 0-4-1-4-3 0-2 2-4 5-4 3 0 5 2 5 5 2-1 4-2 6-3-2 0-4 0-5-2 0-1 0-2 1-3 1-1 3-1 5-1 3 0 6 1 7-1 1-2 1-4 1-6z"/>
</svg>

