<?xml version="1.0" encoding="utf-8"?>
<!-- Simplified favicon icon derived from public/logo/logo.svg -->
<svg xmlns="http://www.w3.org/2000/svg" width="64" height="64" viewBox="0 0 377 323">
  <defs>
    <linearGradient id="g" gradientUnits="userSpaceOnUse" x1="95.001144" y1="164.89824" x2="198.82735" y2="95.748055">
      <stop offset="0" stop-color="#1B5D93"/>
      <stop offset="1" stop-color="#49A3D7"/>
    </linearGradient>
  </defs>
  <!-- Primary mark enlarged and centered to reduce outer whitespace -->
  <g transform="translate(-60,-40) scale(2)">
    <path fill="url(#g)" d="M193.53 89.556L193.907 88.458L194.437 88.2619C194.66 92.1522 195.101 96.0133 195.008 99.9158C194.743 115.885 188.713 131.221 178.029 143.093C166.733 155.788 150.338 164.744 133.209 165.679C115.243 166.66 98.7068 160.916 85.3286 148.894C83.1636 146.948 79.2778 143.791 79.133 140.672C79.1035 140.037 79.2594 139.587 79.5722 139.045C80.0491 138.82 80.1881 138.703 80.7244 138.875C82.9825 139.598 85.1115 142.239 86.0643 144.318C86.5598 145.399 86.8227 146.524 87.0473 147.686C87.7367 147.762 88.4157 147.844 89.1102 147.848C91.1319 147.86 93.6436 149.308 95.2263 149.121C95.1691 148.329 94.8783 146.637 95.4415 145.989C95.9049 145.456 96.3827 145.203 97.0946 145.151C99.051 145.009 101.396 146.343 102.784 147.625C103.928 148.681 104.827 150.544 106.551 150.508L106.863 150.295C106.182 148.38 102.406 146.458 103.703 144.069C104.198 143.157 105.423 142.446 106.391 142.181C108.182 141.69 110.288 142.365 111.811 143.313C112.965 144.031 114.697 145.587 114.975 146.971C115.108 147.631 114.81 148.471 115.327 148.913C117.566 148.493 119.784 148.006 122.061 147.848C119.343 147.235 116.976 146.297 115.432 143.798C114.803 142.78 114.363 141.453 114.639 140.256C114.837 139.394 115.401 138.814 116.15 138.385C117.846 137.415 120.474 137.419 122.293 137.999C123.891 138.509 125.185 139.56 125.956 141.058C126.662 142.43 126.553 143.804 126.797 145.279C129.739 144.842 132.449 142.535 134.745 141.922C132.351 141.883 129.67 141.552 127.93 139.728C127.044 138.801 126.525 137.57 126.603 136.277C126.676 135.059 127.295 133.949 128.225 133.175C129.732 131.922 131.784 131.519 133.7 131.717C135.519 131.904 137.317 132.893 138.433 134.345C139.044 135.141 139.597 136.355 139.499 137.374C139.437 138.028 139.144 138.73 139.014 139.39L139.253 139.522C141.592 138.055 143.767 136.518 146.276 135.326C144.131 134.957 141.364 134.58 140.058 132.608C139.249 131.385 139.275 129.81 139.605 128.432C139.703 128.037 139.816 127.645 139.943 127.258C141.415 125.693 142.725 124.39 144.983 124.302C148.774 124.155 152.561 125.645 156.27 126.28C166.022 127.868 175.929 124.535 182.737 117.374C189.443 110.257 193.653 99.3425 193.53 89.556Z"/>
  </g>
</svg>

