<?xml version="1.0" encoding="utf-8" ?><svg xmlns="http://www.w3.org/2000/svg" xmlns:xlink="http://www.w3.org/1999/xlink" width="377" height="323" viewBox="0 0 377 323"><defs><linearGradient id="gradient_0" gradientUnits="userSpaceOnUse" x1="124.26186" y1="318.32959" x2="398.96304" y2="132.08855"><stop offset="0" stop-color="#1E6298"/><stop offset="1" stop-color="#49A4D8"/></linearGradient></defs><path fill="url(#gradient_0)" d="M369.555 86.5936C371.476 95.3782 371.525 104.32 372.311 113.2C380.29 203.396 316.057 288.162 228.61 308.978C188.025 318.638 143.976 312.225 106.466 293.227C90.9319 284.571 77.5521 275.623 64.4327 263.481C58.9241 258.382 47.7826 248.505 51.1922 239.875C52.5714 236.383 58.3371 239.882 60.077 241.317C66.2787 246.368 71.628 254.832 72.4969 262.899L72.5254 263.18C78.7242 263.363 83.1684 263.897 89.0415 265.943C90.7629 266.542 93.5033 266.921 95.3481 267.224C93.8305 257.561 96.8793 254.342 106.552 256.88C109.935 258.303 112.625 259.776 115.506 262.111C118.805 264.785 122.398 271.752 127.364 270.708L127.628 270.328C126.331 265.153 114.832 259.514 119.237 252.691C124.084 245.183 135.076 246.529 141.558 250.95C145.235 253.458 149.123 256.451 150.163 261.03C150.568 262.937 150.516 264.841 150.844 266.695C155.335 265.354 165.578 263.868 170.153 263.817C162.241 261.318 155.033 258.797 150.869 250.999C148.157 245.869 148.335 239.607 154.154 236.89C158.848 234.699 165.648 234.467 170.552 236.103C180.877 239.549 182.619 247.184 183.083 256.642C185.489 255.546 188.041 255.066 190.597 253.919C195.713 251.622 199.637 248.836 205.039 247.275C194.945 246.367 182.088 243.864 182.652 230.743C183.027 222.023 195.291 217.16 202.663 218.666C214.528 221.089 221.515 229.23 216.687 240.876C223.667 237.019 230.205 232.487 237.612 228.425C232.348 228.222 224.941 226.504 221.372 222.532C216.398 216.996 217.417 207.605 223.02 202.801C228.161 198.392 232.174 197.755 238.736 198.255C247.786 198.921 256.342 201.967 265.37 203.496C289.524 207.647 315.839 199.926 334.062 183.418C354.107 165.259 366.215 136.999 368.552 110.233C369.212 102.681 368.391 93.7893 369.555 86.5936Z"/><path fill="#1A6098" d="M106.466 293.227C90.9319 284.571 77.5521 275.623 64.4327 263.481C58.9241 258.382 47.7826 248.505 51.1922 239.875C52.5714 236.383 58.3371 239.882 60.077 241.317C66.2787 246.368 71.628 254.832 72.4969 262.899L72.5254 263.18C78.7242 263.363 83.1684 263.897 89.0415 265.943C90.7629 266.542 93.5033 266.921 95.3481 267.224C93.8305 257.561 96.8793 254.342 106.552 256.88C106.118 257.721 105.611 259.148 104.925 259.349C103.316 259.832 99.0735 259.486 98.3487 261.525C97.4252 264.123 95.5214 267.606 96.2578 270.42C96.8881 272.83 100.784 272.451 101.605 274.492C102.063 275.568 101.843 277.957 102.288 278.915C103.537 281.602 105.601 284.081 107.193 286.579C107.819 287.56 107.905 288.323 108.638 289.368L108.368 290.416L108.652 290.537L109.054 290.315C109.186 290.705 109.144 290.699 109.019 291.101C107.244 291.601 106.955 291.403 106.466 293.227Z"/><path fill="#3481B7" d="M130.328 120.299C145.224 119.108 156.221 135.067 148.063 148.125C146.343 150.878 141.81 154.116 138.586 154.66C129.909 155.236 122.735 151.361 119.671 143.102C115.738 132.504 119.859 124.17 130.328 120.299Z"/><path fill="#3481B7" d="M162.57 150.788C183.795 149.012 191.732 178.945 170.475 183.777C148.6 185.975 140.342 156.248 162.57 150.788Z"/><path fill="#3481B7" d="M127.83 166.084C145.748 164.793 159.248 193.995 136.178 199.236C112.86 200.191 107.269 168.684 127.83 166.084Z"/><path fill="#3481B7" d="M96.3983 134.569C109.224 133.757 120.37 148.708 115.639 160.751C113.922 165.121 109.451 168.268 104.812 168.636C83.5858 170.566 76.3631 137.538 96.3983 134.569Z"/><path fill="#3481B7" d="M199.35 177.592C221.455 178.287 223.642 205.281 202.044 209.249C179.044 209.622 176.172 179.865 199.35 177.592Z"/><path fill="#3481B7" d="M103.765 87.5397C120.438 86.7659 130.322 115.702 108.12 122.519C87.9317 122.865 82.9953 93.0126 103.765 87.5397Z"/><path fill="#3481B7" d="M160.62 194.549C169.449 194.001 179.205 199.499 181.969 208.013C185.064 217.549 178.27 222.602 170.319 225.149C149.46 228.213 137.706 199.123 160.62 194.549Z"/><path fill="#3481B7" d="M71.9017 102.086C88.7958 100.845 95.5671 131.533 75.9012 137.27C67.2052 137.136 60.6382 130.258 59.7414 121.726C59.2648 117.192 59.0853 111.132 62.1704 107.449C64.7024 104.427 67.9306 102.513 71.9017 102.086Z"/><path fill="#3481B7" d="M93.2689 179.542C108.556 177.652 127.393 205.566 105.017 212.323C87.4807 213.993 72.8571 184.665 93.2689 179.542Z"/><path fill="#3481B7" d="M126.5 209.601C136.417 208.899 147.143 216.667 148.61 226.827C149.487 232.898 143.769 238.051 137.94 238.547L137.739 238.578C117.342 241.52 105.322 211.664 126.5 209.601Z"/><path fill="#3481B7" d="M64.9484 148.303C72.0712 147.624 78.4743 152.189 81.6264 158.401C86.7045 168.409 86.2865 176.428 75.5908 182.091C73.044 183.013 69.9158 182.14 67.4934 180.856C58.7694 176.234 53.1182 162.981 57.51 153.752C58.9018 150.828 61.9109 149.184 64.9484 148.303Z"/><path fill="#3481B7" d="M79.3181 56.2892C81.9753 56.1714 84.3251 56.18 86.7967 57.3289C95.1548 61.2138 97.0519 72.5249 93.4963 80.3059C91.4398 84.8064 87.833 88.1927 83.2809 89.9217C80.9419 90.2961 79.2573 90.3717 77.0019 89.444C68.0321 85.755 65.7989 74.4458 69.2324 66.159C71.2982 61.1733 74.5373 58.3427 79.3181 56.2892Z"/><path fill="#3481B7" d="M50.8593 70.5462C68.0284 69.6124 70.2132 97.8907 53.9182 104.433C47.085 105.187 42.5093 102.59 40.6345 95.6396C38.3699 87.2449 41.3365 72.9889 50.8593 70.5462Z"/><path fill="#3481B7" d="M41.6147 115.793C53.0661 114.993 59.7523 127.694 58.1795 137.845C57.3411 143.257 54.3072 146.861 49.9405 149.952C44.5964 152.335 39.1226 147.39 36.6346 143.091C32.2256 135.472 31.0484 118.807 41.6147 115.793Z"/><path fill="#1A6098" d="M96.4053 221.357C106.723 221.643 122.655 235.33 115.247 246.455C113.797 248.632 110.81 249.784 108.254 250.047C100.679 250.025 93.7324 244.732 89.5621 238.697C84.4059 231.235 86.2167 222.053 96.4053 221.357Z"/><path fill="#1A6098" d="M65.6688 192.567C79.6887 191.35 95.2583 218.637 77.6807 223.677C63.3513 222.503 47.4831 195.667 65.6688 192.567Z"/><path fill="#1A6098" d="M38.834 160.503C52.2114 159.186 66.0963 185.206 51.9475 193.571C38.9496 195.635 31.0428 177.346 33.5553 166.746C34.3019 163.596 36.1938 162.057 38.834 160.503Z"/><path fill="#3481B7" d="M64.316 28.2786C82.0482 29.514 77 53.2363 62.9679 59.0763C61.2267 59.525 59.1689 59.4655 57.5346 58.7405C50.3197 55.5404 51.5839 44.4702 54.0602 38.617C56.1808 33.6048 59.4456 30.2408 64.316 28.2786Z"/><path fill="#1A6098" d="M26.4399 84.4721C36.1175 85.0934 39.4004 98.0154 37.3662 105.874C36.024 111.059 33.6038 115.503 29.0407 118.424C27.7264 118.509 26.2225 118.669 24.9589 118.281C19.063 116.471 17.435 109.262 17.3557 103.828C17.2439 96.1697 19.0655 88.2408 26.4399 84.4721Z"/><path fill="#3481B7" d="M40.0232 43.029C41.1182 42.9374 42.2626 43.1852 43.2898 43.5272C50.4538 45.9125 49.5227 54.7538 47.3832 60.409C45.2163 66.1365 41.9722 71.8238 36.2134 74.5218C21.5164 74.8908 25.6409 48.2605 40.0232 43.029Z"/><path fill="#1A6098" d="M19.6472 128.504C32.5878 128.592 38.6945 155.806 28.4224 162.665C16.8677 165.376 12.2813 141.631 15.2188 133.857C16.4143 130.693 16.7859 130.024 19.6472 128.504Z"/><path fill="#1A6098" d="M20.6827 171.212C29.5029 171.459 36.6873 187.351 36.5732 195.053C36.4512 203.29 32.2034 207.765 25.429 200.819C24.7617 199.745 24.1862 199.093 23.3666 198.127C23.8233 200.661 26.3406 206.786 25.6868 208.349L25.2425 208.365C24.2286 207.931 23.4005 206.719 22.7459 205.827C18.3978 199.799 18.3239 191.63 18.0528 184.487C17.8989 180.433 17.0222 173.847 20.6827 171.212Z"/><path fill="#1A6098" d="M68.6613 231.306C77.6675 230.956 83.8557 236.473 89.0604 243.24C92.1091 247.203 93.6773 254.314 87.6978 256.528C83.119 257.299 79.9207 256.667 75.9294 254.014C71.08 250.622 65.9484 245.186 64.6405 239.288C63.8445 235.698 64.6602 232.119 68.6613 231.306Z"/><path fill="#1A6098" d="M44.3726 202.826C53.1595 203.825 58.1124 210.243 60.9798 218.029C62.9036 223.253 63.0338 230.21 56.7519 232.157C53.9384 231.974 52.878 231.443 50.5247 229.731C45.01 225.721 30.1504 204.494 44.3726 202.826Z"/><path fill="#3481B7" d="M56.8134 5.76592C71.2469 5.28041 60.5274 27.2922 50.1706 30.9708C48.074 31.0661 47.4494 31.0233 45.4691 30.3169C38.4479 23.3563 49.5278 8.82815 56.8134 5.76592Z"/><path fill="#1A6098" d="M20.8073 57.8575C28.1507 59.2091 24.5963 75.0532 22.478 79.6809C20.4966 84.0096 18.4532 88.3587 15.2821 91.9875C12.0762 90.8079 10.6333 88.0995 10.6699 84.8318C10.7543 77.3077 15.754 63.0541 20.8073 57.8575Z"/><path fill="#1A6098" d="M8.52392 98.185C9.20339 98.16 10.4098 98.3966 10.9836 98.7633C19.4077 104.148 16.3428 124.925 12.7444 131.72C11.7755 132.502 11.0849 132.632 9.8849 132.341C9.07598 132.146 7.89763 131.159 7.62197 130.386C4.53805 121.739 6.00811 106.675 8.52392 98.185Z"/><path fill="#1A6098" d="M28.8009 210.153C30.5528 210.312 32.2005 211.264 33.5553 212.337C37.7197 215.636 47.7121 229.991 48.2567 235.277C48.4055 236.721 48.0088 237.833 47.1203 238.951C41.7749 241.914 30.1034 220.435 28.9767 215.982C28.4323 213.83 28.0305 212.277 28.8009 210.153Z"/><path fill="#1A6098" d="M7.41609 141.06C11.6301 141.85 13.7715 148.704 14.7183 152.3C16.6128 159.495 16.9624 166.567 15.5924 173.872C14.6119 174.475 13.339 174.349 12.7724 173.352C8.10793 165.142 6.75507 150.074 7.41609 141.06Z"/><path fill="#3481B7" d="M39.3527 22.9059C40.6618 23.4428 40.6533 24.7432 40.4223 25.9708C38.5734 35.7964 31.8032 47.7548 23.6573 53.609C23.5401 53.5911 23.1247 53.4099 22.9876 53.3543C19.9942 47.6829 34.7644 26.8745 39.3527 22.9059Z"/></svg>