<svg width="400" height="300" xmlns="http://www.w3.org/2000/svg">
  <defs>
    <linearGradient id="refGrad" x1="0%" y1="0%" x2="100%" y2="100%">
      <stop offset="0%" style="stop-color:#f8fafc;stop-opacity:1" />
      <stop offset="100%" style="stop-color:#e2e8f0;stop-opacity:1" />
    </linearGradient>
  </defs>
  <rect width="100%" height="100%" fill="url(#refGrad)"/>
  
  <!-- Dům -->
  <rect x="150" y="180" width="100" height="80" fill="#94a3b8" stroke="#64748b" stroke-width="2"/>
  <polygon points="150,180 200,140 250,180" fill="#64748b" stroke="#475569" stroke-width="2"/>
  <rect x="170" y="200" width="20" height="30" fill="#f1f5f9"/>
  <rect x="210" y="200" width="20" height="30" fill="#f1f5f9"/>
  
  <!-- Klimatizace jednotka -->
  <rect x="320" y="200" width="60" height="40" fill="#3b82f6" stroke="#1d4ed8" stroke-width="2" rx="4"/>
  <circle cx="350" cy="220" r="8" fill="#1d4ed8"/>
  <path d="M350 212 L350 228 M342 220 L358 220" stroke="white" stroke-width="2" stroke-linecap="round"/>
  
  <!-- Tepelné čerpadlo -->
  <rect x="20" y="200" width="80" height="50" fill="#10b981" stroke="#059669" stroke-width="2" rx="6"/>
  <circle cx="60" cy="225" r="12" fill="#059669"/>
  <path d="M60 213 L60 237 M48 225 L72 225" stroke="white" stroke-width="2" stroke-linecap="round"/>
  
  <text x="200" y="280" font-family="Arial, sans-serif" font-size="14" fill="#475569" text-anchor="middle">Rodinný dům Praha</text>
  <text x="200" y="295" font-family="Arial, sans-serif" font-size="12" fill="#64748b" text-anchor="middle">Kompletní klimatizace</text>
</svg> 